<svg width="25" height="24" viewBox="0 0 25 24" fill="none" xmlns="http://www.w3.org/2000/svg">
<path d="M12.1865 24C8.83652 24 5.99902 22.8375 3.67402 20.5125C1.34902 18.1875 0.186523 15.35 0.186523 12C0.186523 8.65 1.34902 5.8125 3.67402 3.4875C5.99902 1.1625 8.83652 0 12.1865 0C13.9115 0 15.5615 0.356 17.1365 1.068C18.7115 1.78 20.0615 2.799 21.1865 4.125V0H24.1865V10.5H13.6865V7.5H19.9865C19.1865 6.1 18.093 5 16.706 4.2C15.319 3.4 13.8125 3 12.1865 3C9.68652 3 7.56152 3.875 5.81152 5.625C4.06152 7.375 3.18652 9.5 3.18652 12C3.18652 14.5 4.06152 16.625 5.81152 18.375C7.56152 20.125 9.68652 21 12.1865 21C14.1115 21 15.849 20.45 17.399 19.35C18.949 18.25 20.0365 16.8 20.6615 15H23.8115C23.1115 17.65 21.6865 19.8125 19.5365 21.4875C17.3865 23.1625 14.9365 24 12.1865 24Z" fill="white"/>
</svg>