<svg width="25" height="24" viewBox="0 0 25 24" fill="none" xmlns="http://www.w3.org/2000/svg">
<path d="M23.9775 18.3769L17.5995 11.9994L23.9754 5.6225C24.0382 5.55969 24.0881 5.48512 24.1221 5.40305C24.156 5.32099 24.1735 5.23303 24.1735 5.1442C24.1735 5.05537 24.156 4.96741 24.1221 4.88534C24.0881 4.80328 24.0382 4.72871 23.9754 4.6659L19.5089 0.19816C19.3819 0.0712787 19.2098 0 19.0304 0C18.8509 0 18.6788 0.0712787 18.5519 0.19816L12.175 6.57501L5.79902 0.19816C5.54535 -0.0558672 5.09614 -0.0558672 4.84212 0.19816L0.374533 4.66522C0.247823 4.79222 0.176661 4.96429 0.176661 5.14369C0.176661 5.32309 0.247823 5.49516 0.374533 5.62216L6.7515 11.9994L0.373512 18.3772C0.246885 18.5043 0.175781 18.6763 0.175781 18.8557C0.175781 19.0351 0.246885 19.2071 0.373512 19.3342L4.84042 23.8016C4.90321 23.8645 4.97779 23.9144 5.05989 23.9484C5.14198 23.9825 5.22999 24 5.31887 24C5.40775 24 5.49576 23.9825 5.57786 23.9484C5.65995 23.9144 5.73453 23.8645 5.79732 23.8016L12.175 17.4237L18.553 23.8012C18.6852 23.9332 18.8577 23.9995 19.0314 23.9995C19.2052 23.9995 19.3779 23.9332 19.5102 23.8012L23.9778 19.3338C24.1046 19.2069 24.1758 19.0347 24.1758 18.8553C24.1757 18.6758 24.1044 18.5037 23.9775 18.3769Z" fill="white"/>
</svg>
